<svg width="111" height="42" viewBox="0 0 111 42" fill="none" xmlns="http://www.w3.org/2000/svg">
<path d="M17.4648 10.7525V30.09H13.4805L5.71094 17.1275V30.09H1.72656V10.7525H5.71094L13.4938 23.7283V10.7525H17.4648ZM20.3364 23.0509V22.772C20.3364 21.7184 20.4869 20.7489 20.7879 19.8634C21.089 18.9692 21.5273 18.1944 22.1028 17.5392C22.6783 16.884 23.3866 16.3749 24.2278 16.0119C25.0689 15.64 26.034 15.4541 27.1231 15.4541C28.2122 15.4541 29.1817 15.64 30.0317 16.0119C30.8817 16.3749 31.5945 16.884 32.17 17.5392C32.7544 18.1944 33.1971 18.9692 33.4981 19.8634C33.7991 20.7489 33.9497 21.7184 33.9497 22.772V23.0509C33.9497 24.0957 33.7991 25.0653 33.4981 25.9595C33.1971 26.8449 32.7544 27.6197 32.17 28.2837C31.5945 28.939 30.8861 29.4481 30.045 29.8111C29.2038 30.1741 28.2387 30.3556 27.1497 30.3556C26.0606 30.3556 25.0911 30.1741 24.2411 29.8111C23.3999 29.4481 22.6872 28.939 22.1028 28.2837C21.5273 27.6197 21.089 26.8449 20.7879 25.9595C20.4869 25.0653 20.3364 24.0957 20.3364 23.0509ZM24.1614 22.772V23.0509C24.1614 23.653 24.2145 24.2153 24.3208 24.7377C24.427 25.26 24.5952 25.7205 24.8254 26.1189C25.0645 26.5085 25.3744 26.814 25.7551 27.0353C26.1359 27.2567 26.6007 27.3673 27.1497 27.3673C27.6809 27.3673 28.1369 27.2567 28.5176 27.0353C28.8984 26.814 29.2038 26.5085 29.434 26.1189C29.6643 25.7205 29.8325 25.26 29.9387 24.7377C30.0538 24.2153 30.1114 23.653 30.1114 23.0509V22.772C30.1114 22.1877 30.0538 21.6387 29.9387 21.1252C29.8325 20.6028 29.6598 20.1423 29.4208 19.7439C29.1906 19.3366 28.8851 19.0179 28.5044 18.7877C28.1236 18.5574 27.6632 18.4423 27.1231 18.4423C26.583 18.4423 26.1226 18.5574 25.7419 18.7877C25.37 19.0179 25.0645 19.3366 24.8254 19.7439C24.5952 20.1423 24.427 20.6028 24.3208 21.1252C24.2145 21.6387 24.1614 22.1877 24.1614 22.772ZM35.9446 23.0509V22.772C35.9446 21.7184 36.0952 20.7489 36.3962 19.8634C36.6973 18.9692 37.1355 18.1944 37.7111 17.5392C38.2866 16.884 38.9949 16.3749 39.8361 16.0119C40.6772 15.64 41.6423 15.4541 42.7314 15.4541C43.8204 15.4541 44.79 15.64 45.64 16.0119C46.49 16.3749 47.2027 16.884 47.7782 17.5392C48.3626 18.1944 48.8053 18.9692 49.1064 19.8634C49.4074 20.7489 49.5579 21.7184 49.5579 22.772V23.0509C49.5579 24.0957 49.4074 25.0653 49.1064 25.9595C48.8053 26.8449 48.3626 27.6197 47.7782 28.2837C47.2027 28.939 46.4944 29.4481 45.6532 29.8111C44.8121 30.1741 43.847 30.3556 42.7579 30.3556C41.6689 30.3556 40.6993 30.1741 39.8493 29.8111C39.0082 29.4481 38.2954 28.939 37.7111 28.2837C37.1355 27.6197 36.6973 26.8449 36.3962 25.9595C36.0952 25.0653 35.9446 24.0957 35.9446 23.0509ZM39.7696 22.772V23.0509C39.7696 23.653 39.8228 24.2153 39.929 24.7377C40.0353 25.26 40.2035 25.7205 40.4337 26.1189C40.6728 26.5085 40.9827 26.814 41.3634 27.0353C41.7441 27.2567 42.209 27.3673 42.7579 27.3673C43.2892 27.3673 43.7452 27.2567 44.1259 27.0353C44.5066 26.814 44.8121 26.5085 45.0423 26.1189C45.2725 25.7205 45.4407 25.26 45.547 24.7377C45.6621 24.2153 45.7196 23.653 45.7196 23.0509V22.772C45.7196 22.1877 45.6621 21.6387 45.547 21.1252C45.4407 20.6028 45.2681 20.1423 45.029 19.7439C44.7988 19.3366 44.4933 19.0179 44.1126 18.7877C43.7319 18.5574 43.2715 18.4423 42.7314 18.4423C42.1913 18.4423 41.7308 18.5574 41.3501 18.7877C40.9782 19.0179 40.6728 19.3366 40.4337 19.7439C40.2035 20.1423 40.0353 20.6028 39.929 21.1252C39.8228 21.6387 39.7696 22.1877 39.7696 22.772ZM52.1638 9.69H55.9888V26.7962L55.6037 30.09H52.1638V9.69ZM65.0865 22.7587V23.0377C65.0865 24.109 64.9714 25.0918 64.7412 25.9861C64.5198 26.8804 64.1745 27.6551 63.7053 28.3103C63.236 28.9567 62.6516 29.4614 61.9521 29.8244C61.2615 30.1785 60.4469 30.3556 59.5084 30.3556C58.6318 30.3556 57.8704 30.1785 57.224 29.8244C56.5865 29.4702 56.0508 28.9699 55.617 28.3236C55.1831 27.6772 54.8334 26.9202 54.5678 26.0525C54.3021 25.1848 54.1029 24.2374 53.9701 23.2103V22.5994C54.1029 21.5723 54.3021 20.6249 54.5678 19.7572C54.8334 18.8895 55.1831 18.1324 55.617 17.4861C56.0508 16.8397 56.5865 16.3395 57.224 15.9853C57.8615 15.6311 58.6141 15.4541 59.4818 15.4541C60.4292 15.4541 61.2526 15.6356 61.9521 15.9986C62.6605 16.3528 63.2448 16.8574 63.7053 17.5127C64.1745 18.159 64.5198 18.9293 64.7412 19.8236C64.9714 20.709 65.0865 21.6874 65.0865 22.7587ZM61.2615 23.0377V22.7587C61.2615 22.1744 61.2172 21.6254 61.1287 21.1119C61.049 20.5895 60.9073 20.1335 60.7037 19.7439C60.5 19.3455 60.2211 19.0311 59.867 18.8009C59.5217 18.5707 59.0745 18.4556 58.5256 18.4556C58.0032 18.4556 57.5605 18.5442 57.1974 18.7212C56.8344 18.8983 56.5334 19.1462 56.2943 19.465C56.0641 19.7837 55.8915 20.1645 55.7763 20.6072C55.6612 21.041 55.5904 21.5192 55.5638 22.0416V23.7814C55.5904 24.4809 55.7055 25.1007 55.9092 25.6408C56.1217 26.172 56.4404 26.5926 56.8654 26.9025C57.2993 27.2035 57.8615 27.3541 58.5521 27.3541C59.0922 27.3541 59.5394 27.2478 59.8935 27.0353C60.2477 26.8228 60.5222 26.5218 60.717 26.1322C60.9206 25.7426 61.0623 25.2866 61.142 24.7642C61.2217 24.233 61.2615 23.6574 61.2615 23.0377Z" fill="white"/>
<path d="M71.9424 10.7525V30.09H67.958V10.7525H71.9424ZM79.6455 19.0134V22.1212H70.8534V19.0134H79.6455ZM80.5752 10.7525V13.8736H70.8534V10.7525H80.5752ZM86.9397 9.69V30.09H83.1015V9.69H86.9397ZM94.3933 15.7197V30.09H90.555V15.7197H94.3933ZM90.316 11.9744C90.316 11.4166 90.5108 10.9561 90.9003 10.5931C91.2899 10.2301 91.8123 10.0486 92.4675 10.0486C93.1139 10.0486 93.6319 10.2301 94.0214 10.5931C94.4199 10.9561 94.6191 11.4166 94.6191 11.9744C94.6191 12.5322 94.4199 12.9926 94.0214 13.3556C93.6319 13.7186 93.1139 13.9002 92.4675 13.9002C91.8123 13.9002 91.2899 13.7186 90.9003 13.3556C90.5108 12.9926 90.316 12.5322 90.316 11.9744ZM100.891 15.7197L103.268 20.0892L105.712 15.7197H109.789L105.725 22.7455L109.975 30.09H105.884L103.295 25.4681L100.705 30.09H96.6141L100.864 22.7455L96.8 15.7197H100.891Z" fill="#FF0000"/>
</svg>
